<svg width="510" height="407" viewBox="0 0 510 407" fill="none" xmlns="http://www.w3.org/2000/svg">
<g filter="url(#filter0_ddddd_1_357)">
<rect x="31.22" y="66.5" width="444.75" height="90.7412" rx="14.5186" transform="rotate(-1.5 31.22 66.5)" fill="#F89A32"/>
<path d="M225.379 115.554L225.004 101.239L219.399 101.386L219.346 99.3539L232.867 98.9998L232.921 101.032L227.316 101.178L227.691 115.494L225.379 115.554ZM235.512 115.289L235.058 97.9609L237.3 97.9022L237.517 106.193L237.05 105.317C237.434 104.497 238.04 103.85 238.869 103.376C239.698 102.903 240.673 102.651 241.794 102.622C242.806 102.595 243.698 102.767 244.471 103.136C245.26 103.505 245.883 104.081 246.339 104.863C246.796 105.646 247.04 106.644 247.072 107.859L247.259 114.981L245.017 115.04L244.837 108.174C244.806 106.975 244.486 106.08 243.879 105.489C243.287 104.896 242.461 104.614 241.403 104.642C240.609 104.663 239.92 104.837 239.336 105.163C238.753 105.49 238.306 105.962 237.995 106.577C237.699 107.193 237.563 107.952 237.587 108.855L237.754 115.23L235.512 115.289ZM256.923 114.868C255.599 114.903 254.424 114.661 253.398 114.143C252.388 113.624 251.59 112.897 251.004 111.962C250.434 111.027 250.133 109.944 250.101 108.714C250.069 107.484 250.305 106.387 250.81 105.424C251.33 104.46 252.05 103.701 252.97 103.147C253.906 102.577 254.965 102.277 256.148 102.246C257.347 102.215 258.412 102.452 259.345 102.957C260.277 103.462 261.013 104.191 261.552 105.143C262.106 106.078 262.4 107.185 262.434 108.461C262.436 108.555 262.431 108.664 262.419 108.789C262.422 108.913 262.417 109.03 262.405 109.14L251.872 109.416L251.83 107.804L261.195 107.559L260.299 108.143C260.293 107.349 260.111 106.645 259.753 106.031C259.394 105.417 258.906 104.947 258.29 104.62C257.689 104.278 256.992 104.117 256.198 104.138C255.419 104.158 254.731 104.355 254.133 104.729C253.535 105.088 253.073 105.59 252.747 106.238C252.421 106.869 252.269 107.59 252.29 108.4L252.3 108.773C252.321 109.599 252.527 110.333 252.918 110.977C253.324 111.605 253.874 112.089 254.569 112.43C255.263 112.77 256.054 112.928 256.941 112.905C257.673 112.886 258.331 112.744 258.917 112.479C259.517 112.214 260.037 111.827 260.475 111.317L261.751 112.732C261.207 113.401 260.52 113.917 259.688 114.282C258.872 114.646 257.95 114.842 256.923 114.868ZM255.73 100.574L251.728 97.6413L254.577 97.5667L257.832 100.519L255.73 100.574ZM269.26 114.545C268.233 114.572 267.248 114.458 266.307 114.202C265.381 113.946 264.648 113.622 264.108 113.231L264.996 111.432C265.534 111.776 266.196 112.063 266.981 112.292C267.766 112.52 268.563 112.624 269.373 112.603C270.416 112.576 271.159 112.408 271.603 112.1C272.062 111.792 272.285 111.374 272.271 110.844C272.261 110.455 272.113 110.155 271.827 109.945C271.541 109.734 271.163 109.58 270.693 109.484C270.239 109.386 269.731 109.306 269.168 109.243C268.605 109.164 268.042 109.07 267.478 108.96C266.914 108.835 266.395 108.661 265.922 108.44C265.448 108.203 265.066 107.878 264.775 107.465C264.483 107.037 264.328 106.464 264.309 105.748C264.29 105.001 264.483 104.341 264.888 103.77C265.294 103.198 265.874 102.755 266.63 102.439C267.4 102.107 268.314 101.927 269.373 101.9C270.183 101.879 271.003 101.958 271.833 102.139C272.679 102.304 273.371 102.558 273.91 102.903L272.999 104.703C272.428 104.344 271.838 104.102 271.227 103.978C270.616 103.854 270.007 103.799 269.4 103.815C268.419 103.841 267.692 104.024 267.217 104.363C266.743 104.687 266.512 105.098 266.525 105.597C266.536 106.017 266.685 106.34 266.971 106.566C267.273 106.777 267.651 106.938 268.106 107.051C268.576 107.163 269.093 107.259 269.656 107.337C270.218 107.401 270.781 107.495 271.346 107.62C271.909 107.73 272.42 107.896 272.878 108.118C273.351 108.339 273.733 108.656 274.024 109.069C274.331 109.482 274.494 110.038 274.512 110.739C274.532 111.486 274.331 112.138 273.909 112.694C273.487 113.251 272.883 113.695 272.098 114.027C271.311 114.344 270.366 114.516 269.26 114.545ZM282.921 114.188C281.598 114.222 280.423 113.98 279.397 113.462C278.386 112.943 277.588 112.216 277.003 111.281C276.433 110.346 276.132 109.263 276.1 108.033C276.068 106.803 276.304 105.707 276.808 104.743C277.328 103.779 278.048 103.02 278.969 102.466C279.904 101.897 280.963 101.596 282.147 101.565C283.345 101.534 284.411 101.771 285.343 102.276C286.276 102.781 287.012 103.51 287.551 104.462C288.105 105.398 288.399 106.504 288.432 107.78C288.435 107.874 288.43 107.983 288.417 108.108C288.421 108.233 288.416 108.35 288.403 108.459L277.871 108.735L277.829 107.123L287.193 106.878L286.297 107.462C286.292 106.668 286.11 105.964 285.751 105.35C285.392 104.736 284.905 104.266 284.289 103.94C283.688 103.597 282.99 103.436 282.196 103.457C281.418 103.477 280.73 103.674 280.132 104.048C279.534 104.407 279.072 104.91 278.746 105.557C278.42 106.189 278.267 106.909 278.288 107.719L278.298 108.093C278.32 108.918 278.526 109.652 278.917 110.296C279.323 110.925 279.873 111.409 280.567 111.749C281.262 112.089 282.052 112.247 282.94 112.224C283.672 112.205 284.33 112.063 284.915 111.799C285.516 111.534 286.035 111.146 286.474 110.636L287.749 112.052C287.206 112.72 286.518 113.237 285.687 113.601C284.871 113.965 283.949 114.161 282.921 114.188ZM295.259 113.865C294.231 113.892 293.247 113.777 292.305 113.521C291.379 113.265 290.646 112.942 290.106 112.551L290.994 110.751C291.533 111.096 292.195 111.382 292.98 111.611C293.765 111.839 294.562 111.943 295.371 111.922C296.415 111.895 297.158 111.727 297.602 111.42C298.061 111.112 298.284 110.693 298.27 110.164C298.26 109.774 298.112 109.474 297.826 109.264C297.54 109.053 297.162 108.899 296.692 108.803C296.238 108.706 295.729 108.625 295.167 108.562C294.604 108.484 294.04 108.389 293.477 108.279C292.912 108.154 292.394 107.981 291.921 107.759C291.447 107.522 291.065 107.197 290.773 106.784C290.482 106.356 290.327 105.783 290.308 105.067C290.288 104.32 290.481 103.661 290.887 103.089C291.293 102.518 291.873 102.074 292.628 101.758C293.398 101.426 294.313 101.247 295.372 101.219C296.181 101.198 297.001 101.278 297.832 101.458C298.677 101.623 299.369 101.878 299.908 102.222L298.997 104.022C298.427 103.663 297.836 103.421 297.225 103.297C296.615 103.173 296.006 103.119 295.398 103.135C294.418 103.16 293.69 103.343 293.216 103.682C292.742 104.006 292.511 104.418 292.524 104.916C292.535 105.336 292.684 105.659 292.97 105.886C293.271 106.096 293.65 106.257 294.104 106.37C294.575 106.482 295.091 106.578 295.654 106.657C296.217 106.72 296.78 106.814 297.344 106.939C297.908 107.049 298.419 107.215 298.876 107.437C299.349 107.658 299.732 107.975 300.023 108.388C300.33 108.801 300.492 109.358 300.511 110.058C300.53 110.805 300.329 111.457 299.907 112.014C299.486 112.57 298.882 113.014 298.096 113.346C297.31 113.663 296.364 113.836 295.259 113.865ZM314.794 113.353C313.596 113.384 312.514 113.148 311.551 112.643C310.603 112.139 309.844 111.418 309.274 110.483C308.704 109.548 308.403 108.449 308.37 107.188C308.337 105.927 308.581 104.822 309.101 103.874C309.621 102.91 310.341 102.151 311.262 101.597C312.197 101.043 313.265 100.75 314.463 100.719C315.507 100.692 316.455 100.901 317.308 101.346C318.16 101.791 318.848 102.474 319.371 103.395C319.909 104.315 320.197 105.476 320.233 106.878C320.27 108.279 320.052 109.453 319.578 110.4C319.12 111.347 318.476 112.073 317.648 112.577C316.82 113.066 315.869 113.325 314.794 113.353ZM314.93 111.387C315.708 111.366 316.404 111.169 317.017 110.794C317.646 110.42 318.131 109.901 318.472 109.237C318.828 108.558 318.995 107.782 318.972 106.911C318.949 106.023 318.742 105.265 318.352 104.637C317.977 103.992 317.465 103.499 316.818 103.158C316.185 102.816 315.48 102.655 314.702 102.676C313.908 102.697 313.204 102.894 312.591 103.269C311.977 103.643 311.492 104.162 311.136 104.826C310.779 105.474 310.612 106.242 310.635 107.129C310.658 108.001 310.865 108.767 311.256 109.426C311.647 110.07 312.158 110.563 312.791 110.905C313.423 111.247 314.136 111.407 314.93 111.387ZM319.204 113.097L319.117 109.758L319.182 106.882L318.873 104.015L318.657 95.7718L320.899 95.7131L321.353 113.041L319.204 113.097ZM331.11 112.926C329.786 112.96 328.612 112.719 327.585 112.2C326.575 111.681 325.777 110.954 325.191 110.019C324.622 109.084 324.321 108.001 324.288 106.771C324.256 105.541 324.492 104.445 324.997 103.481C325.517 102.517 326.237 101.758 327.157 101.205C328.093 100.635 329.152 100.334 330.335 100.303C331.534 100.272 332.6 100.509 333.532 101.014C334.464 101.52 335.2 102.248 335.739 103.2C336.293 104.136 336.587 105.242 336.621 106.519C336.623 106.612 336.618 106.721 336.606 106.846C336.609 106.971 336.604 107.088 336.592 107.197L326.059 107.473L326.017 105.861L335.382 105.616L334.486 106.201C334.481 105.406 334.298 104.702 333.94 104.088C333.581 103.475 333.093 103.004 332.477 102.678C331.876 102.335 331.179 102.174 330.385 102.195C329.606 102.215 328.918 102.413 328.32 102.787C327.722 103.145 327.26 103.648 326.934 104.295C326.608 104.927 326.456 105.647 326.477 106.457L326.487 106.831C326.508 107.656 326.714 108.39 327.105 109.035C327.511 109.663 328.061 110.147 328.756 110.487C329.45 110.827 330.241 110.986 331.128 110.962C331.86 110.943 332.519 110.801 333.104 110.537C333.704 110.272 334.224 109.884 334.662 109.374L335.938 110.79C335.395 111.458 334.707 111.975 333.875 112.339C333.059 112.703 332.137 112.899 331.11 112.926ZM351.284 112.398C350.085 112.429 349.004 112.192 348.04 111.688C347.092 111.183 346.333 110.463 345.763 109.527C345.194 108.592 344.892 107.494 344.859 106.233C344.826 104.972 345.07 103.867 345.59 102.919C346.11 101.955 346.831 101.196 347.751 100.642C348.687 100.088 349.754 99.7949 350.953 99.7635C351.996 99.7362 352.944 99.9451 353.797 100.39C354.65 100.835 355.338 101.518 355.86 102.439C356.398 103.36 356.686 104.521 356.723 105.922C356.759 107.323 356.541 108.497 356.067 109.445C355.609 110.391 354.966 111.117 354.138 111.622C353.309 112.111 352.358 112.369 351.284 112.398ZM351.419 110.431C352.197 110.411 352.893 110.213 353.507 109.839C354.136 109.464 354.621 108.945 354.962 108.282C355.318 107.603 355.484 106.827 355.461 105.955C355.438 105.068 355.231 104.31 354.841 103.681C354.466 103.037 353.954 102.544 353.307 102.202C352.675 101.861 351.969 101.7 351.191 101.72C350.397 101.741 349.693 101.939 349.08 102.313C348.466 102.687 347.982 103.206 347.625 103.87C347.268 104.518 347.101 105.286 347.124 106.173C347.147 107.045 347.354 107.811 347.745 108.471C348.136 109.115 348.648 109.608 349.28 109.95C349.912 110.291 350.625 110.452 351.419 110.431ZM355.694 112.142L355.606 108.802L355.671 105.926L355.362 103.06L355.146 94.8163L357.388 94.7576L357.842 112.086L355.694 112.142ZM367.389 111.976C366.143 112.008 365.031 111.765 364.051 111.245C363.072 110.726 362.289 109.998 361.704 109.063C361.118 108.113 360.809 107.03 360.778 105.816C360.745 104.586 360.997 103.489 361.533 102.524C362.068 101.56 362.812 100.801 363.763 100.246C364.714 99.6758 365.812 99.3744 367.058 99.3418C368.288 99.3096 369.393 99.5533 370.372 100.073C371.367 100.577 372.149 101.296 372.719 102.232C373.304 103.151 373.613 104.233 373.645 105.479C373.677 106.709 373.426 107.806 372.89 108.77C372.37 109.734 371.627 110.502 370.66 111.072C369.709 111.642 368.619 111.944 367.389 111.976ZM367.337 110.014C368.131 109.993 368.835 109.796 369.448 109.421C370.077 109.047 370.562 108.528 370.903 107.864C371.244 107.185 371.403 106.41 371.38 105.538C371.357 104.651 371.158 103.893 370.783 103.264C370.408 102.619 369.896 102.126 369.249 101.785C368.616 101.443 367.903 101.283 367.109 101.303C366.315 101.324 365.612 101.522 364.998 101.896C364.385 102.271 363.9 102.79 363.543 103.453C363.186 104.101 363.02 104.869 363.043 105.757C363.066 106.628 363.273 107.394 363.664 108.054C364.055 108.698 364.566 109.191 365.198 109.533C365.83 109.874 366.543 110.035 367.337 110.014ZM382.306 111.585C381.045 111.618 379.909 111.375 378.898 110.857C377.903 110.337 377.113 109.61 376.528 108.675C375.942 107.74 375.634 106.658 375.601 105.428C375.569 104.198 375.821 103.101 376.356 102.136C376.892 101.172 377.643 100.412 378.61 99.8572C379.592 99.2862 380.714 98.9842 381.975 98.9512C383.096 98.9218 384.098 99.1215 384.982 99.5502C385.881 99.9628 386.583 100.599 387.088 101.458L385.412 102.6C384.992 102.004 384.482 101.573 383.883 101.308C383.299 101.028 382.673 100.896 382.003 100.913C381.194 100.935 380.474 101.133 379.845 101.507C379.216 101.882 378.724 102.401 378.367 103.065C378.01 103.713 377.843 104.481 377.867 105.368C377.89 106.256 378.097 107.022 378.488 107.666C378.878 108.31 379.398 108.803 380.045 109.144C380.693 109.485 381.422 109.645 382.231 109.624C382.901 109.607 383.52 109.45 384.088 109.155C384.672 108.844 385.159 108.379 385.548 107.761L387.28 108.791C386.82 109.66 386.153 110.339 385.277 110.83C384.417 111.304 383.427 111.556 382.306 111.585ZM394.663 111.262C393.417 111.294 392.443 110.985 391.741 110.333C391.038 109.682 390.67 108.733 390.638 107.488L390.341 96.1382L392.583 96.0795L392.877 107.336C392.895 108.005 393.072 108.515 393.408 108.864C393.76 109.213 394.247 109.38 394.87 109.363C395.571 109.345 396.149 109.135 396.606 108.734L397.349 110.327C397.014 110.631 396.607 110.86 396.128 111.013C395.665 111.165 395.176 111.248 394.663 111.262ZM388.358 100.747L388.31 98.9022L396.203 98.6955L396.251 100.54L388.358 100.747ZM404.973 110.992C403.727 111.024 402.615 110.781 401.635 110.261C400.656 109.742 399.873 109.014 399.288 108.079C398.702 107.129 398.393 106.046 398.361 104.832C398.329 103.602 398.581 102.505 399.117 101.54C399.652 100.576 400.396 99.8164 401.347 99.2618C402.298 98.6917 403.396 98.3903 404.642 98.3576C405.872 98.3254 406.976 98.5691 407.956 99.0888C408.951 99.5924 409.733 100.312 410.303 101.247C410.888 102.167 411.196 103.249 411.229 104.495C411.261 105.725 411.01 106.822 410.474 107.786C409.954 108.75 409.211 109.517 408.244 110.088C407.293 110.658 406.203 110.959 404.973 110.992ZM404.921 109.03C405.715 109.009 406.419 108.812 407.032 108.437C407.661 108.062 408.146 107.543 408.487 106.88C408.828 106.201 408.987 105.426 408.964 104.554C408.941 103.667 408.742 102.909 408.367 102.28C407.992 101.635 407.48 101.142 406.832 100.801C406.2 100.459 405.487 100.299 404.693 100.319C403.899 100.34 403.196 100.538 402.582 100.912C401.969 101.286 401.484 101.805 401.127 102.469C400.77 103.117 400.604 103.885 400.627 104.772C400.65 105.644 400.857 106.41 401.248 107.07C401.639 107.714 402.15 108.207 402.782 108.549C403.414 108.89 404.127 109.051 404.921 109.03ZM414.492 110.602L414.167 98.225L416.316 98.1688L416.404 101.532L416.172 100.696C416.492 99.8312 417.051 99.1622 417.849 98.6895C418.646 98.2168 419.637 97.965 420.82 97.934L420.877 100.106C420.783 100.093 420.689 100.087 420.596 100.09C420.518 100.092 420.44 100.094 420.363 100.096C419.164 100.127 418.223 100.51 417.542 101.245C416.86 101.979 416.537 103.024 416.572 104.378L416.733 110.543L414.492 110.602ZM430.75 110.176L430.681 107.561L430.552 107.074L430.435 102.613C430.41 101.663 430.111 100.939 429.537 100.44C428.978 99.9249 428.146 99.6818 427.04 99.7107C426.309 99.7299 425.596 99.8732 424.902 100.141C424.207 100.393 423.624 100.727 423.152 101.145L422.174 99.4876C422.799 98.9572 423.551 98.548 424.432 98.2601C425.327 97.9562 426.266 97.7914 427.247 97.7657C428.944 97.7213 430.262 98.0996 431.202 98.9007C432.142 99.7018 432.635 100.951 432.679 102.648L432.875 110.121L430.75 110.176ZM426.69 110.423C425.771 110.447 424.958 110.313 424.249 110.02C423.556 109.726 423.015 109.312 422.627 108.777C422.239 108.226 422.036 107.6 422.017 106.9C422 106.23 422.14 105.619 422.437 105.066C422.749 104.513 423.26 104.063 423.967 103.717C424.69 103.371 425.667 103.182 426.897 103.15L430.82 103.047L430.862 104.658L427.032 104.759C425.911 104.788 425.161 104.995 424.782 105.378C424.402 105.762 424.22 106.219 424.233 106.748C424.249 107.355 424.504 107.84 424.996 108.201C425.488 108.546 426.162 108.707 427.018 108.685C427.859 108.663 428.586 108.457 429.199 108.067C429.827 107.677 430.272 107.12 430.534 106.396L431.018 107.926C430.741 108.665 430.235 109.263 429.499 109.718C428.763 110.158 427.826 110.393 426.69 110.423ZM441.278 110.041C440.032 110.074 439.058 109.764 438.356 109.113C437.653 108.461 437.285 107.513 437.253 106.267L436.956 94.9175L439.197 94.8588L439.492 106.115C439.51 106.784 439.687 107.294 440.023 107.643C440.375 107.993 440.862 108.159 441.485 108.143C442.186 108.124 442.764 107.914 443.221 107.513L443.964 109.106C443.629 109.411 443.222 109.64 442.743 109.792C442.28 109.945 441.791 110.028 441.278 110.041ZM434.973 99.5264L434.925 97.6815L442.818 97.4748L442.866 99.3197L434.973 99.5264Z" fill="white"/>
<path d="M79.2986 122.458C77.6876 122.501 76.1032 122.313 74.5455 121.897C73.0091 121.458 71.7075 120.838 70.6409 120.038L72.3832 116.692C73.2282 117.345 74.2439 117.863 75.4303 118.246C76.6167 118.629 77.8522 118.804 79.1366 118.77C80.6606 118.73 81.8391 118.394 82.6722 117.762C83.5047 117.109 83.907 116.249 83.879 115.182C83.8517 114.137 83.4381 113.32 82.6384 112.731C81.8387 112.142 80.5681 111.87 78.8264 111.916L76.7365 111.97L76.6604 109.064L82.988 101.121L83.585 102.707L71.3065 103.028L71.2133 99.4686L86.79 99.0608L86.8644 101.902L80.5368 109.845L78.282 108.597L79.5556 108.563C82.364 108.49 84.4814 109.066 85.9077 110.292C87.3553 111.496 88.1048 113.078 88.1561 115.037C88.1897 116.322 87.8942 117.517 87.2696 118.622C86.645 119.728 85.6666 120.636 84.3345 121.346C83.0237 122.034 81.345 122.405 79.2986 122.458ZM103.465 121.826C101.68 121.872 100.028 121.621 98.5107 121.073C96.9931 120.524 95.6655 119.742 94.5279 118.726C93.3897 117.689 92.4972 116.47 91.8506 115.071C91.2034 113.65 90.8576 112.091 90.8131 110.393C90.7686 108.695 91.0327 107.13 91.6052 105.699C92.1771 104.246 93.0046 102.983 94.0875 101.909C95.1698 100.813 96.4544 99.9514 97.9412 99.3243C99.4279 98.6971 101.053 98.3605 102.816 98.3143C104.602 98.2676 106.242 98.5187 107.738 99.0677C109.255 99.6162 110.583 100.409 111.722 101.447C112.859 102.463 113.752 103.681 114.399 105.102C115.045 106.501 115.391 108.05 115.435 109.748C115.48 111.446 115.216 113.022 114.644 114.474C114.072 115.927 113.245 117.191 112.162 118.265C111.079 119.339 109.794 120.189 108.307 120.816C106.842 121.443 105.228 121.779 103.465 121.826ZM103.335 118.104C104.488 118.073 105.55 117.85 106.52 117.432C107.489 117.015 108.323 116.437 109.023 115.7C109.722 114.941 110.255 114.077 110.622 113.109C111.01 112.119 111.188 111.036 111.158 109.86C111.127 108.684 110.892 107.623 110.453 106.676C110.036 105.707 109.458 104.872 108.721 104.172C107.983 103.451 107.12 102.907 106.13 102.541C105.14 102.175 104.068 102.007 102.914 102.037C101.76 102.067 100.698 102.291 99.7291 102.709C98.7814 103.126 97.9472 103.714 97.2264 104.473C96.5268 105.211 95.983 106.075 95.595 107.065C95.2282 108.033 95.0602 109.105 95.091 110.281C95.1212 111.435 95.3451 112.496 95.7626 113.466C96.2019 114.434 96.7904 115.28 97.5282 116.001C98.2655 116.701 99.1291 117.233 100.119 117.6C101.109 117.966 102.181 118.134 103.335 118.104ZM130.954 121.106C129.169 121.152 127.518 120.902 126 120.353C124.483 119.805 123.155 119.022 122.017 118.007C120.879 116.969 119.987 115.75 119.34 114.351C118.693 112.93 118.347 111.371 118.303 109.673C118.258 107.975 118.522 106.41 119.095 104.979C119.667 103.526 120.494 102.263 121.577 101.189C122.659 100.093 123.944 99.2316 125.431 98.6044C126.917 97.9773 128.542 97.6407 130.306 97.5945C132.091 97.5477 133.732 97.7989 135.227 98.3479C136.745 98.8964 138.073 99.6894 139.211 100.727C140.349 101.743 141.241 102.961 141.888 104.382C142.535 105.781 142.88 107.33 142.925 109.028C142.969 110.726 142.706 112.302 142.134 113.754C141.562 115.207 140.734 116.471 139.651 117.545C138.568 118.619 137.284 119.469 135.797 120.097C134.332 120.723 132.718 121.06 130.954 121.106ZM130.824 117.384C131.978 117.354 133.04 117.13 134.009 116.712C134.978 116.295 135.813 115.717 136.512 114.98C137.212 114.221 137.744 113.357 138.111 112.389C138.499 111.399 138.678 110.316 138.647 109.14C138.616 107.965 138.381 106.903 137.943 105.956C137.525 104.987 136.948 104.152 136.211 103.453C135.473 102.731 134.609 102.187 133.619 101.821C132.629 101.455 131.557 101.287 130.403 101.317C129.25 101.347 128.188 101.571 127.218 101.989C126.271 102.406 125.437 102.994 124.716 103.754C124.016 104.491 123.472 105.355 123.084 106.345C122.718 107.313 122.55 108.385 122.58 109.561C122.611 110.715 122.835 111.776 123.252 112.746C123.691 113.715 124.28 114.56 125.018 115.281C125.755 115.981 126.618 116.514 127.608 116.88C128.598 117.246 129.67 117.414 130.824 117.384Z" fill="white" fill-opacity="0.95"/>
</g>
<g filter="url(#filter1_ddddd_1_357)">
<rect x="33.1572" y="194.552" width="444.75" height="90.7412" rx="14.5186" transform="rotate(1 33.1572 194.552)" fill="white"/>
<path d="M212.793 253.704L220.553 237.484L222.258 237.514L229.447 253.995L227.625 253.963L221.026 238.497L221.726 238.509L214.591 253.736L212.793 253.704ZM215.812 249.388L216.351 247.995L225.857 248.161L226.346 249.572L215.812 249.388ZM231.801 254.036L232.015 241.773L233.604 241.801L233.545 245.141L233.392 244.554C233.751 243.626 234.339 242.927 235.158 242.459C235.976 241.975 236.985 241.743 238.184 241.764L238.156 243.376C238.093 243.375 238.031 243.374 237.969 243.372C237.907 243.356 237.845 243.347 237.782 243.346C236.49 243.323 235.471 243.703 234.725 244.484C233.979 245.25 233.594 246.357 233.569 247.805L233.46 254.065L231.801 254.036ZM245.394 254.39C244.241 254.37 243.359 254.043 242.747 253.409C242.135 252.775 241.839 251.89 241.859 250.754L242.06 239.238L243.718 239.267L243.519 250.689C243.506 251.405 243.676 251.961 244.027 252.357C244.394 252.753 244.92 252.956 245.605 252.968C246.337 252.981 246.948 252.782 247.438 252.37L248.001 253.571C247.669 253.861 247.268 254.072 246.799 254.204C246.345 254.337 245.876 254.398 245.394 254.39ZM239.793 243.287L239.817 241.909L247.408 242.042L247.384 243.42L239.793 243.287ZM251.007 254.371L251.221 242.108L252.88 242.137L252.666 254.4L251.007 254.371ZM252.11 239.414C251.767 239.408 251.481 239.286 251.251 239.048C251.022 238.811 250.91 238.528 250.916 238.201C250.921 237.874 251.043 237.604 251.28 237.39C251.518 237.16 251.808 237.049 252.151 237.055C252.493 237.061 252.779 237.175 253.009 237.397C253.239 237.619 253.351 237.893 253.345 238.22C253.339 238.563 253.218 238.849 252.98 239.078C252.758 239.308 252.468 239.42 252.11 239.414ZM262.37 254.686C261.155 254.665 260.07 254.381 259.114 253.835C258.173 253.274 257.439 252.521 256.91 251.577C256.382 250.618 256.128 249.531 256.149 248.316C256.171 247.086 256.462 246.008 257.024 245.084C257.585 244.159 258.345 243.44 259.304 242.927C260.279 242.415 261.374 242.169 262.588 242.19C263.631 242.208 264.57 242.427 265.404 242.847C266.238 243.266 266.889 243.885 267.357 244.703L266.105 245.522C265.695 244.892 265.182 244.424 264.564 244.117C263.946 243.81 263.271 243.651 262.539 243.638C261.667 243.623 260.878 243.811 260.17 244.204C259.462 244.581 258.9 245.124 258.482 245.833C258.065 246.543 257.848 247.38 257.831 248.345C257.814 249.311 258.002 250.155 258.394 250.879C258.787 251.602 259.33 252.172 260.023 252.589C260.717 252.991 261.5 253.199 262.372 253.214C263.104 253.227 263.784 253.091 264.412 252.806C265.04 252.521 265.57 252.079 266.001 251.479L267.224 252.341C266.727 253.127 266.055 253.723 265.207 254.128C264.359 254.519 263.413 254.705 262.37 254.686ZM270.259 254.707L270.562 237.376L272.22 237.405L271.917 254.736L270.259 254.707ZM281.739 255.024C280.462 255.002 279.345 254.718 278.389 254.172C277.433 253.61 276.691 252.857 276.162 251.913C275.634 250.954 275.38 249.867 275.401 248.652C275.422 247.437 275.698 246.367 276.228 245.442C276.774 244.517 277.503 243.798 278.415 243.284C279.344 242.755 280.376 242.501 281.513 242.52C282.665 242.54 283.68 242.823 284.559 243.368C285.453 243.898 286.149 244.642 286.646 245.601C287.144 246.544 287.382 247.631 287.36 248.861C287.359 248.939 287.35 249.024 287.332 249.117C287.331 249.195 287.329 249.281 287.328 249.374L276.653 249.188L276.675 247.95L286.462 248.121L285.799 248.6C285.815 247.712 285.634 246.923 285.257 246.231C284.895 245.523 284.391 244.969 283.743 244.569C283.096 244.168 282.344 243.96 281.488 243.945C280.647 243.931 279.888 244.112 279.212 244.49C278.536 244.867 278.005 245.403 277.619 246.097C277.233 246.791 277.032 247.59 277.016 248.493L277.012 248.75C276.995 249.685 277.183 250.513 277.576 251.237C277.984 251.945 278.55 252.508 279.275 252.925C280.016 253.328 280.861 253.537 281.811 253.554C282.558 253.567 283.254 253.446 283.897 253.193C284.555 252.94 285.123 252.545 285.6 252.008L286.515 253.098C285.959 253.743 285.265 254.229 284.434 254.557C283.618 254.886 282.72 255.042 281.739 255.024ZM293.92 255.237C292.908 255.219 291.952 255.063 291.054 254.766C290.156 254.455 289.454 254.077 288.948 253.632L289.718 252.337C290.21 252.719 290.843 253.057 291.616 253.351C292.39 253.629 293.205 253.776 294.062 253.791C295.23 253.811 296.074 253.647 296.594 253.298C297.114 252.933 297.38 252.447 297.39 251.84C297.398 251.388 297.256 251.035 296.965 250.781C296.689 250.511 296.319 250.31 295.854 250.177C295.389 250.029 294.87 249.903 294.295 249.8C293.721 249.696 293.146 249.577 292.572 249.442C292.014 249.308 291.503 249.12 291.04 248.878C290.577 248.621 290.202 248.28 289.913 247.854C289.64 247.429 289.51 246.866 289.522 246.165C289.534 245.495 289.731 244.899 290.114 244.376C290.497 243.853 291.049 243.45 291.771 243.167C292.508 242.868 293.398 242.728 294.442 242.746C295.236 242.76 296.028 242.883 296.818 243.115C297.609 243.331 298.258 243.615 298.766 243.966L298.019 245.285C297.48 244.902 296.901 244.627 296.281 244.46C295.661 244.278 295.04 244.182 294.417 244.171C293.311 244.152 292.49 244.332 291.954 244.712C291.434 245.077 291.168 245.555 291.158 246.147C291.15 246.614 291.284 246.982 291.559 247.252C291.85 247.522 292.228 247.739 292.693 247.902C293.173 248.051 293.693 248.177 294.252 248.28C294.826 248.384 295.392 248.51 295.951 248.66C296.525 248.795 297.043 248.983 297.506 249.225C297.985 249.451 298.361 249.777 298.634 250.202C298.923 250.612 299.061 251.152 299.05 251.822C299.037 252.538 298.824 253.158 298.41 253.68C298.011 254.187 297.428 254.582 296.66 254.864C295.908 255.132 294.994 255.256 293.92 255.237ZM313.003 255.593C311.788 255.572 310.623 255.357 309.509 254.948C308.411 254.524 307.563 253.995 306.967 253.362L307.667 252.042C308.234 252.613 308.996 253.101 309.955 253.508C310.929 253.898 311.954 254.103 313.028 254.122C314.056 254.14 314.891 254.03 315.534 253.792C316.193 253.539 316.674 253.196 316.977 252.766C317.296 252.335 317.46 251.855 317.47 251.326C317.481 250.687 317.303 250.17 316.936 249.774C316.585 249.379 316.115 249.067 315.527 248.838C314.939 248.595 314.289 248.381 313.576 248.197C312.862 248.013 312.149 247.822 311.436 247.622C310.723 247.407 310.066 247.131 309.465 246.793C308.879 246.456 308.403 246.019 308.039 245.483C307.69 244.932 307.523 244.221 307.539 243.348C307.553 242.539 307.776 241.803 308.208 241.141C308.656 240.463 309.327 239.93 310.222 239.54C311.117 239.135 312.257 238.945 313.643 238.969C314.562 238.985 315.471 239.133 316.369 239.414C317.268 239.679 318.04 240.043 318.687 240.506L318.079 241.874C317.386 241.394 316.644 241.039 315.854 240.807C315.079 240.575 314.326 240.453 313.594 240.44C312.613 240.423 311.801 240.541 311.158 240.795C310.515 241.048 310.034 241.398 309.714 241.844C309.411 242.275 309.254 242.771 309.245 243.332C309.233 243.97 309.404 244.487 309.755 244.883C310.122 245.278 310.599 245.59 311.187 245.819C311.791 246.047 312.449 246.254 313.162 246.437C313.876 246.621 314.581 246.82 315.278 247.035C315.991 247.25 316.64 247.526 317.226 247.863C317.828 248.185 318.304 248.614 318.652 249.15C319.017 249.686 319.192 250.382 319.177 251.239C319.163 252.033 318.932 252.769 318.484 253.446C318.036 254.108 317.357 254.641 316.447 255.046C315.552 255.435 314.404 255.618 313.003 255.593ZM327.607 255.825C326.392 255.804 325.307 255.52 324.351 254.974C323.41 254.412 322.676 253.66 322.147 252.716C321.619 251.756 321.365 250.669 321.386 249.455C321.408 248.225 321.699 247.147 322.26 246.222C322.822 245.298 323.582 244.579 324.541 244.066C325.516 243.553 326.61 243.308 327.825 243.329C328.868 243.347 329.807 243.566 330.641 243.985C331.474 244.405 332.126 245.024 332.594 245.842L331.342 246.661C330.932 246.031 330.418 245.563 329.801 245.256C329.183 244.949 328.508 244.789 327.776 244.777C326.904 244.761 326.114 244.95 325.407 245.343C324.699 245.72 324.137 246.263 323.719 246.972C323.302 247.681 323.085 248.519 323.068 249.484C323.051 250.45 323.239 251.294 323.631 252.017C324.024 252.741 324.567 253.311 325.26 253.728C325.954 254.13 326.737 254.338 327.609 254.353C328.341 254.366 329.021 254.23 329.649 253.945C330.277 253.66 330.807 253.217 331.238 252.617L332.461 253.48C331.964 254.266 331.292 254.861 330.444 255.267C329.596 255.657 328.65 255.843 327.607 255.825ZM335.496 255.846L335.71 243.583L337.368 243.612L337.154 255.875L335.496 255.846ZM336.598 240.888C336.256 240.882 335.97 240.761 335.74 240.523C335.511 240.285 335.399 240.003 335.404 239.676C335.41 239.349 335.532 239.079 335.769 238.865C336.007 238.635 336.297 238.523 336.639 238.529C336.982 238.535 337.268 238.649 337.498 238.871C337.728 239.093 337.84 239.368 337.834 239.695C337.828 240.038 337.706 240.324 337.468 240.553C337.246 240.783 336.956 240.895 336.598 240.888ZM346.975 256.163C345.699 256.141 344.582 255.857 343.626 255.31C342.67 254.748 341.928 253.996 341.399 253.052C340.87 252.092 340.617 251.005 340.638 249.791C340.659 248.576 340.935 247.506 341.465 246.581C342.011 245.656 342.74 244.936 343.652 244.423C344.581 243.894 345.613 243.639 346.75 243.659C347.902 243.679 348.917 243.962 349.796 244.507C350.69 245.036 351.386 245.781 351.883 246.739C352.38 247.683 352.619 248.769 352.597 250C352.596 250.077 352.586 250.163 352.569 250.256C352.568 250.334 352.566 250.42 352.565 250.513L341.89 250.327L341.912 249.089L351.699 249.26L351.036 249.739C351.052 248.851 350.871 248.061 350.493 247.369C350.132 246.662 349.628 246.108 348.98 245.707C348.333 245.307 347.581 245.099 346.725 245.084C345.884 245.069 345.125 245.251 344.449 245.628C343.773 246.006 343.241 246.542 342.855 247.236C342.47 247.93 342.269 248.729 342.253 249.632L342.248 249.889C342.232 250.823 342.42 251.652 342.813 252.375C343.221 253.084 343.787 253.646 344.512 254.064C345.253 254.466 346.098 254.676 347.048 254.692C347.795 254.705 348.49 254.585 349.134 254.332C349.792 254.078 350.36 253.683 350.837 253.146L351.752 254.237C351.196 254.882 350.502 255.368 349.67 255.696C348.855 256.025 347.956 256.18 346.975 256.163ZM355.865 256.201L356.079 243.939L357.668 243.966L357.609 247.33L357.363 246.695C357.768 245.814 358.403 245.132 359.268 244.649C360.133 244.15 361.158 243.911 362.341 243.931C363.338 243.949 364.206 244.158 364.947 244.561C365.704 244.948 366.285 245.534 366.692 246.32C367.115 247.106 367.315 248.091 367.295 249.275L367.17 256.399L365.512 256.37L365.634 249.409C365.656 248.117 365.346 247.138 364.703 246.472C364.077 245.792 363.179 245.441 362.012 245.421C361.14 245.406 360.373 245.571 359.713 245.918C359.069 246.25 358.562 246.747 358.192 247.41C357.838 248.058 357.653 248.849 357.636 249.784L357.524 256.23L355.865 256.201ZM375.525 256.661C374.373 256.641 373.491 256.314 372.879 255.681C372.267 255.047 371.971 254.162 371.991 253.025L372.192 241.51L373.85 241.539L373.651 252.96C373.638 253.677 373.808 254.233 374.159 254.628C374.526 255.024 375.052 255.228 375.737 255.24C376.469 255.253 377.08 255.053 377.57 254.641L378.133 255.842C377.801 256.133 377.4 256.344 376.93 256.476C376.476 256.608 376.008 256.67 375.525 256.661ZM369.925 245.559L369.949 244.181L377.54 244.313L377.516 245.691L369.925 245.559ZM381.139 256.643L381.353 244.38L383.011 244.409L382.797 256.672L381.139 256.643ZM382.241 241.685C381.899 241.679 381.613 241.557 381.383 241.32C381.154 241.082 381.042 240.8 381.047 240.473C381.053 240.146 381.175 239.875 381.412 239.661C381.65 239.432 381.94 239.32 382.282 239.326C382.625 239.332 382.911 239.446 383.141 239.668C383.371 239.89 383.483 240.165 383.477 240.492C383.471 240.834 383.349 241.12 383.111 241.35C382.889 241.58 382.599 241.691 382.241 241.685ZM387.487 256.753L387.728 242.949C387.747 241.859 388.081 240.985 388.731 240.326C389.382 239.668 390.306 239.349 391.505 239.37C391.972 239.378 392.423 239.448 392.857 239.581C393.29 239.713 393.653 239.914 393.944 240.184L393.362 241.412C393.132 241.205 392.862 241.053 392.552 240.954C392.243 240.839 391.909 240.779 391.551 240.773C390.85 240.761 390.309 240.946 389.929 241.329C389.548 241.711 389.351 242.284 389.338 243.047L389.306 244.916L389.339 245.688L389.145 256.782L387.487 256.753ZM385.481 245.83L385.505 244.452L393.096 244.585L393.072 245.963L385.481 245.83ZM395.125 256.887L395.339 244.624L396.997 244.653L396.783 256.916L395.125 256.887ZM396.227 241.929C395.884 241.923 395.598 241.801 395.369 241.564C395.139 241.326 395.027 241.044 395.033 240.717C395.039 240.39 395.16 240.119 395.398 239.905C395.635 239.676 395.925 239.564 396.268 239.57C396.611 239.576 396.897 239.69 397.127 239.912C397.356 240.134 397.468 240.409 397.463 240.736C397.457 241.078 397.335 241.364 397.097 241.594C396.875 241.824 396.585 241.935 396.227 241.929ZM406.32 257.199C405.152 257.179 404.105 256.896 403.18 256.35C402.271 255.804 401.559 255.06 401.046 254.116C400.533 253.173 400.287 252.078 400.309 250.832C400.331 249.602 400.614 248.525 401.16 247.599C401.706 246.659 402.443 245.94 403.371 245.442C404.314 244.929 405.37 244.682 406.538 244.703C407.628 244.722 408.589 244.98 409.421 245.477C410.269 245.975 410.934 246.695 411.416 247.638C411.899 248.566 412.128 249.699 412.105 251.038C412.081 252.377 411.805 253.51 411.274 254.435C410.76 255.345 410.07 256.042 409.205 256.525C408.356 256.993 407.394 257.218 406.32 257.199ZM406.462 255.729C407.334 255.745 408.116 255.564 408.808 255.186C409.516 254.794 410.071 254.243 410.472 253.533C410.89 252.808 411.107 251.971 411.124 251.021C411.14 250.071 410.952 249.235 410.56 248.511C410.183 247.788 409.648 247.218 408.954 246.801C408.276 246.384 407.501 246.168 406.629 246.153C405.773 246.138 404.998 246.327 404.306 246.72C403.614 247.113 403.059 247.664 402.642 248.373C402.225 249.082 402.008 249.912 401.991 250.862C401.974 251.812 402.162 252.656 402.554 253.395C402.947 254.118 403.482 254.688 404.16 255.105C404.838 255.506 405.606 255.715 406.462 255.729ZM410.914 261.695L411.057 253.52L411.334 251.048L411.213 248.593L411.277 244.902L412.866 244.93L412.572 261.724L410.914 261.695ZM422.337 257.479C421.293 257.46 420.386 257.25 419.614 256.847C418.842 256.444 418.245 255.849 417.823 255.063C417.416 254.277 417.223 253.3 417.243 252.133L417.367 245.009L419.026 245.037L418.905 251.975C418.882 253.283 419.184 254.277 419.811 254.958C420.453 255.623 421.358 255.966 422.526 255.987C423.383 256.001 424.125 255.843 424.754 255.511C425.399 255.164 425.891 254.659 426.229 253.995C426.584 253.331 426.769 252.533 426.785 251.598L426.897 245.175L428.556 245.204L428.342 257.467L426.753 257.439L426.812 254.075L427.058 254.687C426.653 255.583 426.034 256.281 425.199 256.781C424.381 257.265 423.427 257.498 422.337 257.479ZM438.17 257.755C436.893 257.733 435.777 257.448 434.821 256.902C433.865 256.34 433.122 255.587 432.594 254.644C432.065 253.684 431.812 252.597 431.833 251.383C431.854 250.168 432.13 249.098 432.66 248.173C433.206 247.248 433.935 246.528 434.847 246.015C435.775 245.486 436.808 245.231 437.945 245.251C439.097 245.271 440.112 245.554 440.991 246.098C441.885 246.628 442.58 247.372 443.078 248.331C443.575 249.274 443.813 250.361 443.792 251.591C443.79 251.669 443.781 251.755 443.764 251.848C443.763 251.926 443.761 252.011 443.76 252.105L433.085 251.918L433.107 250.681L442.894 250.851L442.231 251.33C442.246 250.443 442.066 249.653 441.688 248.961C441.327 248.254 440.822 247.7 440.175 247.299C439.528 246.898 438.776 246.691 437.92 246.676C437.079 246.661 436.32 246.842 435.644 247.22C434.967 247.598 434.436 248.134 434.05 248.828C433.664 249.522 433.463 250.321 433.448 251.224L433.443 251.481C433.427 252.415 433.615 253.244 434.007 253.967C434.416 254.675 434.982 255.238 435.707 255.656C436.447 256.058 437.293 256.268 438.243 256.284C438.99 256.297 439.685 256.177 440.328 255.923C440.987 255.67 441.555 255.275 442.031 254.738L442.947 255.829C442.39 256.473 441.697 256.96 440.865 257.288C440.05 257.616 439.151 257.772 438.17 257.755ZM450.352 257.968C449.339 257.95 448.384 257.793 447.486 257.497C446.588 257.185 445.886 256.807 445.38 256.362L446.15 255.067C446.642 255.45 447.274 255.788 448.048 256.082C448.822 256.36 449.637 256.506 450.494 256.521C451.661 256.542 452.505 256.377 453.026 256.028C453.546 255.663 453.811 255.177 453.822 254.57C453.83 254.119 453.688 253.766 453.397 253.511C453.121 253.242 452.751 253.041 452.286 252.908C451.821 252.76 451.301 252.634 450.727 252.53C450.152 252.427 449.578 252.308 449.004 252.173C448.446 252.039 447.935 251.851 447.472 251.609C447.009 251.352 446.633 251.01 446.345 250.584C446.072 250.159 445.942 249.596 445.954 248.895C445.965 248.226 446.163 247.63 446.546 247.107C446.929 246.584 447.481 246.181 448.202 245.897C448.94 245.599 449.83 245.458 450.873 245.477C451.667 245.49 452.46 245.613 453.25 245.845C454.041 246.061 454.69 246.345 455.198 246.697L454.45 248.016C453.912 247.632 453.333 247.358 452.713 247.191C452.093 247.009 451.471 246.912 450.848 246.901C449.743 246.882 448.922 247.062 448.386 247.443C447.865 247.807 447.6 248.285 447.59 248.877C447.581 249.344 447.715 249.713 447.991 249.982C448.282 250.252 448.66 250.469 449.124 250.633C449.605 250.782 450.124 250.907 450.683 251.011C451.258 251.114 451.824 251.241 452.382 251.391C452.956 251.525 453.475 251.714 453.938 251.955C454.417 252.182 454.793 252.508 455.066 252.933C455.354 253.343 455.493 253.883 455.481 254.552C455.469 255.269 455.255 255.888 454.841 256.41C454.443 256.917 453.86 257.312 453.092 257.595C452.339 257.862 451.426 257.986 450.352 257.968Z" fill="black" fill-opacity="0.8"/>
<path d="M75.2266 252.164L75.5972 230.934L77.4253 232.894L70.7296 232.777L70.7917 229.217L79.8717 229.375L79.4727 252.238L75.2266 252.164ZM91.5799 252.776C89.9686 252.748 88.3939 252.492 86.8559 252.008C85.3401 251.502 84.0668 250.827 83.036 249.981L84.89 246.713C85.7057 247.403 86.6978 247.965 87.8664 248.399C89.0568 248.834 90.2943 249.062 91.579 249.085C93.0815 249.111 94.2628 248.816 95.123 248.199C96.005 247.583 96.4553 246.741 96.474 245.674C96.4865 244.955 96.3125 244.321 95.9518 243.77C95.6129 243.22 94.9887 242.795 94.0791 242.496C93.1912 242.197 91.9635 242.034 90.3957 242.007L84.8758 241.91L86.2689 229.487L99.6929 229.721L99.6308 233.281L87.7745 233.074L90.0308 231.088L88.9865 240.381L86.8003 238.35L91.4056 238.43C93.6701 238.47 95.483 238.807 96.8442 239.44C98.2275 240.052 99.2255 240.898 99.8384 241.976C100.473 243.032 100.779 244.235 100.756 245.585C100.732 246.914 100.384 248.127 99.7118 249.226C99.0392 250.326 98.022 251.201 96.6602 251.852C95.3201 252.504 93.6267 252.812 91.5799 252.776ZM112.614 253.144C110.806 253.112 109.181 252.626 107.738 251.686C106.317 250.747 105.208 249.399 104.411 247.642C103.614 245.864 103.238 243.723 103.282 241.219C103.325 238.715 103.776 236.599 104.634 234.871C105.492 233.122 106.648 231.803 108.101 230.913C109.576 230.024 111.217 229.595 113.024 229.627C114.853 229.659 116.478 230.145 117.899 231.084C119.321 232.024 120.43 233.383 121.226 235.161C122.045 236.918 122.433 239.048 122.389 241.552C122.345 244.056 121.883 246.183 121.003 247.932C120.145 249.659 118.99 250.968 117.537 251.857C116.084 252.747 114.443 253.176 112.614 253.144ZM112.678 249.453C113.745 249.471 114.675 249.204 115.469 248.652C116.263 248.078 116.889 247.196 117.345 246.006C117.823 244.816 118.078 243.307 118.11 241.478C118.142 239.627 117.94 238.109 117.503 236.926C117.089 235.72 116.495 234.828 115.721 234.248C114.947 233.647 114.027 233.336 112.96 233.318C111.936 233.3 111.017 233.578 110.201 234.152C109.407 234.704 108.771 235.575 108.293 236.765C107.837 237.933 107.593 239.443 107.56 241.294C107.528 243.123 107.72 244.64 108.134 245.845C108.571 247.051 109.176 247.954 109.949 248.556C110.745 249.136 111.655 249.435 112.678 249.453ZM134.59 253.527C132.783 253.496 131.158 253.01 129.715 252.07C128.294 251.13 127.185 249.782 126.388 248.026C125.591 246.248 125.215 244.107 125.258 241.602C125.302 239.098 125.753 236.983 126.611 235.255C127.469 233.506 128.624 232.186 130.077 231.297C131.552 230.408 133.193 229.979 135.001 230.011C136.83 230.043 138.455 230.528 139.876 231.468C141.297 232.408 142.406 233.766 143.203 235.545C144.022 237.301 144.409 239.432 144.365 241.936C144.322 244.44 143.86 246.567 142.98 248.315C142.122 250.043 140.967 251.351 139.513 252.241C138.06 253.13 136.419 253.559 134.59 253.527ZM134.655 249.836C135.722 249.855 136.652 249.588 137.446 249.036C138.24 248.461 138.865 247.579 139.322 246.389C139.8 245.2 140.055 243.69 140.087 241.861C140.119 240.01 139.917 238.493 139.48 237.309C139.065 236.104 138.471 235.212 137.697 234.632C136.924 234.03 136.003 233.72 134.936 233.701C133.913 233.684 132.993 233.962 132.177 234.535C131.384 235.088 130.748 235.959 130.269 237.149C129.813 238.317 129.569 239.826 129.537 241.677C129.505 243.506 129.696 245.023 130.111 246.229C130.547 247.434 131.152 248.338 131.926 248.939C132.722 249.519 133.631 249.819 134.655 249.836Z" fill="black" fill-opacity="0.95"/>
</g>
<rect x="33.6165" y="308.577" width="443.819" height="89.81" rx="14.053" transform="rotate(1 33.6165 308.577)" stroke="white" stroke-opacity="0.3" stroke-width="0.931288"/>
<defs>
<filter id="filter0_ddddd_1_357" x="8.53466" y="50.3207" width="492.343" height="186.742" filterUnits="userSpaceOnUse" color-interpolation-filters="sRGB">
<feFlood flood-opacity="0" result="BackgroundImageFix"/>
<feColorMatrix in="SourceAlpha" type="matrix" values="0 0 0 0 0 0 0 0 0 0 0 0 0 0 0 0 0 0 127 0" result="hardAlpha"/>
<feOffset/>
<feColorMatrix type="matrix" values="0 0 0 0 0.00784314 0 0 0 0 0.0509804 0 0 0 0 0.192157 0 0 0 0.04 0"/>
<feBlend mode="normal" in2="BackgroundImageFix" result="effect1_dropShadow_1_357"/>
<feColorMatrix in="SourceAlpha" type="matrix" values="0 0 0 0 0 0 0 0 0 0 0 0 0 0 0 0 0 0 127 0" result="hardAlpha"/>
<feOffset dy="3.62965"/>
<feGaussianBlur stdDeviation="4.08336"/>
<feColorMatrix type="matrix" values="0 0 0 0 0.00784314 0 0 0 0 0.0509804 0 0 0 0 0.192157 0 0 0 0.04 0"/>
<feBlend mode="normal" in2="effect1_dropShadow_1_357" result="effect2_dropShadow_1_357"/>
<feColorMatrix in="SourceAlpha" type="matrix" values="0 0 0 0 0 0 0 0 0 0 0 0 0 0 0 0 0 0 127 0" result="hardAlpha"/>
<feOffset dy="14.5186"/>
<feGaussianBlur stdDeviation="7.2593"/>
<feColorMatrix type="matrix" values="0 0 0 0 0.00784314 0 0 0 0 0.0509804 0 0 0 0 0.192157 0 0 0 0.03 0"/>
<feBlend mode="normal" in2="effect2_dropShadow_1_357" result="effect3_dropShadow_1_357"/>
<feColorMatrix in="SourceAlpha" type="matrix" values="0 0 0 0 0 0 0 0 0 0 0 0 0 0 0 0 0 0 127 0" result="hardAlpha"/>
<feOffset dy="31.7594"/>
<feGaussianBlur stdDeviation="9.52783"/>
<feColorMatrix type="matrix" values="0 0 0 0 0.00784314 0 0 0 0 0.0509804 0 0 0 0 0.192157 0 0 0 0.02 0"/>
<feBlend mode="normal" in2="effect3_dropShadow_1_357" result="effect4_dropShadow_1_357"/>
<feColorMatrix in="SourceAlpha" type="matrix" values="0 0 0 0 0 0 0 0 0 0 0 0 0 0 0 0 0 0 127 0" result="hardAlpha"/>
<feOffset dy="57.167"/>
<feGaussianBlur stdDeviation="11.3427"/>
<feColorMatrix type="matrix" values="0 0 0 0 0.00784314 0 0 0 0 0.0509804 0 0 0 0 0.192157 0 0 0 0.01 0"/>
<feBlend mode="normal" in2="effect4_dropShadow_1_357" result="effect5_dropShadow_1_357"/>
<feBlend mode="normal" in="SourceGraphic" in2="effect5_dropShadow_1_357" result="shape"/>
</filter>
<filter id="filter1_ddddd_1_357" x="8.8883" y="190.015" width="491.636" height="182.879" filterUnits="userSpaceOnUse" color-interpolation-filters="sRGB">
<feFlood flood-opacity="0" result="BackgroundImageFix"/>
<feColorMatrix in="SourceAlpha" type="matrix" values="0 0 0 0 0 0 0 0 0 0 0 0 0 0 0 0 0 0 127 0" result="hardAlpha"/>
<feOffset/>
<feColorMatrix type="matrix" values="0 0 0 0 0.00784314 0 0 0 0 0.0509804 0 0 0 0 0.192157 0 0 0 0.04 0"/>
<feBlend mode="normal" in2="BackgroundImageFix" result="effect1_dropShadow_1_357"/>
<feColorMatrix in="SourceAlpha" type="matrix" values="0 0 0 0 0 0 0 0 0 0 0 0 0 0 0 0 0 0 127 0" result="hardAlpha"/>
<feOffset dy="3.62965"/>
<feGaussianBlur stdDeviation="4.08336"/>
<feColorMatrix type="matrix" values="0 0 0 0 0.00784314 0 0 0 0 0.0509804 0 0 0 0 0.192157 0 0 0 0.04 0"/>
<feBlend mode="normal" in2="effect1_dropShadow_1_357" result="effect2_dropShadow_1_357"/>
<feColorMatrix in="SourceAlpha" type="matrix" values="0 0 0 0 0 0 0 0 0 0 0 0 0 0 0 0 0 0 127 0" result="hardAlpha"/>
<feOffset dy="14.5186"/>
<feGaussianBlur stdDeviation="7.2593"/>
<feColorMatrix type="matrix" values="0 0 0 0 0.00784314 0 0 0 0 0.0509804 0 0 0 0 0.192157 0 0 0 0.03 0"/>
<feBlend mode="normal" in2="effect2_dropShadow_1_357" result="effect3_dropShadow_1_357"/>
<feColorMatrix in="SourceAlpha" type="matrix" values="0 0 0 0 0 0 0 0 0 0 0 0 0 0 0 0 0 0 127 0" result="hardAlpha"/>
<feOffset dy="31.7594"/>
<feGaussianBlur stdDeviation="9.52783"/>
<feColorMatrix type="matrix" values="0 0 0 0 0.00784314 0 0 0 0 0.0509804 0 0 0 0 0.192157 0 0 0 0.02 0"/>
<feBlend mode="normal" in2="effect3_dropShadow_1_357" result="effect4_dropShadow_1_357"/>
<feColorMatrix in="SourceAlpha" type="matrix" values="0 0 0 0 0 0 0 0 0 0 0 0 0 0 0 0 0 0 127 0" result="hardAlpha"/>
<feOffset dy="57.167"/>
<feGaussianBlur stdDeviation="11.3427"/>
<feColorMatrix type="matrix" values="0 0 0 0 0.00784314 0 0 0 0 0.0509804 0 0 0 0 0.192157 0 0 0 0.01 0"/>
<feBlend mode="normal" in2="effect4_dropShadow_1_357" result="effect5_dropShadow_1_357"/>
<feBlend mode="normal" in="SourceGraphic" in2="effect5_dropShadow_1_357" result="shape"/>
</filter>
</defs>
</svg>
